<?xml version="1.0" encoding="UTF-8"?>
<svg xmlns="http://www.w3.org/2000/svg" xmlns:xlink="http://www.w3.org/1999/xlink" width="100" viewBox="0 0 100 100" height="100" preserveAspectRatio="xMidYMid meet" version="1.2" baseProfile="tiny-ps">
  <defs/>
  <g id="fa88515331">
    <rect x="0" width="75" y="0" height="74.999997" style="fill:#ffffff;fill-opacity:1;stroke:none;"/>
    <rect x="0" width="75" y="0" height="74.999997" style="fill:#ffffff;fill-opacity:1;stroke:none;"/>
    <g style="fill:#000000;fill-opacity:1;">
      <g transform="translate(1.309321, 42.958925)">
        <path style="stroke:none" d="M 12.0625 -12.328125 C 12.519531 -12.328125 12.875 -12.226562 13.125 -12.03125 C 13.375 -11.832031 13.5 -11.5625 13.5 -11.21875 C 13.5 -11.039062 13.476562 -10.875 13.4375 -10.71875 L 12.953125 -8.984375 C 12.867188 -8.671875 12.726562 -8.445312 12.53125 -8.3125 C 12.332031 -8.175781 12.070312 -8.109375 11.75 -8.109375 C 11.4375 -8.109375 11.1875 -8.171875 11 -8.296875 C 10.820312 -8.421875 10.6875 -8.632812 10.59375 -8.9375 L 10.296875 -9.984375 C 10.253906 -10.171875 10.195312 -10.296875 10.125 -10.359375 C 10.050781 -10.421875 9.894531 -10.453125 9.65625 -10.453125 L 7.8125 -10.453125 L 6.765625 -6.796875 L 7.125 -6.796875 C 7.289062 -6.796875 7.4375 -6.816406 7.5625 -6.859375 C 7.695312 -6.910156 7.835938 -7.003906 7.984375 -7.140625 L 8.5625 -7.625 C 8.769531 -7.8125 8.957031 -7.941406 9.125 -8.015625 C 9.289062 -8.097656 9.46875 -8.140625 9.65625 -8.140625 C 9.894531 -8.140625 10.085938 -8.070312 10.234375 -7.9375 C 10.390625 -7.800781 10.46875 -7.609375 10.46875 -7.359375 C 10.46875 -7.265625 10.453125 -7.148438 10.421875 -7.015625 L 9.59375 -4.203125 C 9.414062 -3.597656 9.085938 -3.296875 8.609375 -3.296875 C 8.210938 -3.296875 7.898438 -3.5 7.671875 -3.90625 L 7.34375 -4.53125 C 7.257812 -4.707031 7.179688 -4.816406 7.109375 -4.859375 C 7.035156 -4.910156 6.921875 -4.9375 6.765625 -4.9375 L 6.234375 -4.9375 L 5.453125 -2.1875 C 5.429688 -2.113281 5.421875 -2.015625 5.421875 -1.890625 C 5.421875 -1.710938 5.457031 -1.566406 5.53125 -1.453125 C 5.613281 -1.347656 5.738281 -1.234375 5.90625 -1.109375 C 6.039062 -0.992188 6.128906 -0.898438 6.171875 -0.828125 C 6.222656 -0.765625 6.25 -0.6875 6.25 -0.59375 C 6.25 -0.375 6.148438 -0.21875 5.953125 -0.125 C 5.753906 -0.0390625 5.46875 0 5.09375 0 L 0.4375 0 C 0.125 0 -0.109375 -0.0546875 -0.265625 -0.171875 C -0.429688 -0.285156 -0.488281 -0.453125 -0.4375 -0.671875 C -0.414062 -0.773438 -0.367188 -0.859375 -0.296875 -0.921875 C -0.234375 -0.992188 -0.132812 -1.078125 0 -1.171875 C 0.207031 -1.285156 0.375 -1.410156 0.5 -1.546875 C 0.625 -1.679688 0.722656 -1.894531 0.796875 -2.1875 L 3.078125 -10.15625 C 3.117188 -10.3125 3.140625 -10.457031 3.140625 -10.59375 C 3.140625 -10.75 3.117188 -10.875 3.078125 -10.96875 C 3.035156 -11.070312 2.972656 -11.175781 2.890625 -11.28125 C 2.773438 -11.445312 2.71875 -11.578125 2.71875 -11.671875 C 2.71875 -11.710938 2.726562 -11.78125 2.75 -11.875 C 2.800781 -12.039062 2.910156 -12.15625 3.078125 -12.21875 C 3.253906 -12.289062 3.507812 -12.328125 3.84375 -12.328125 Z M 12.0625 -12.328125"/>
      </g>
    </g>
    <g style="fill:#000000;fill-opacity:1;">
      <g transform="translate(12.977904, 42.958925)">
        <path style="stroke:none" d="M 11.296875 -9.828125 C 11.535156 -10.671875 11.867188 -11.304688 12.296875 -11.734375 C 12.722656 -12.171875 13.3125 -12.390625 14.0625 -12.390625 C 14.65625 -12.390625 15.128906 -12.203125 15.484375 -11.828125 C 15.835938 -11.453125 16.015625 -10.988281 16.015625 -10.4375 C 16.015625 -10.25 15.984375 -10.03125 15.921875 -9.78125 C 15.785156 -9.238281 15.546875 -8.847656 15.203125 -8.609375 C 14.859375 -8.367188 14.484375 -8.25 14.078125 -8.25 C 13.867188 -8.25 13.679688 -8.265625 13.515625 -8.296875 C 13.347656 -8.328125 13.191406 -8.367188 13.046875 -8.421875 L 11.953125 -4.40625 C 11.554688 -2.9375 10.894531 -1.816406 9.96875 -1.046875 C 9.039062 -0.273438 7.785156 0.109375 6.203125 0.109375 C 4.742188 0.109375 3.609375 -0.164062 2.796875 -0.71875 C 1.992188 -1.269531 1.59375 -2.132812 1.59375 -3.3125 C 1.59375 -3.875 1.691406 -4.5 1.890625 -5.1875 L 3.296875 -10.15625 C 3.335938 -10.3125 3.359375 -10.46875 3.359375 -10.625 C 3.359375 -10.769531 3.335938 -10.890625 3.296875 -10.984375 C 3.253906 -11.078125 3.195312 -11.179688 3.125 -11.296875 C 3.007812 -11.460938 2.953125 -11.59375 2.953125 -11.6875 C 2.953125 -11.738281 2.96875 -11.800781 3 -11.875 C 3.050781 -12.039062 3.160156 -12.15625 3.328125 -12.21875 C 3.503906 -12.289062 3.757812 -12.328125 4.09375 -12.328125 L 8.4375 -12.328125 C 8.96875 -12.328125 9.234375 -12.164062 9.234375 -11.84375 C 9.234375 -11.769531 9.226562 -11.707031 9.21875 -11.65625 C 9.175781 -11.539062 9.117188 -11.445312 9.046875 -11.375 C 8.984375 -11.3125 8.882812 -11.238281 8.75 -11.15625 C 8.550781 -11.039062 8.390625 -10.914062 8.265625 -10.78125 C 8.140625 -10.644531 8.035156 -10.4375 7.953125 -10.15625 L 6.34375 -4.5 C 6.226562 -4.070312 6.171875 -3.710938 6.171875 -3.421875 C 6.171875 -2.597656 6.617188 -2.1875 7.515625 -2.1875 C 8.054688 -2.1875 8.507812 -2.359375 8.875 -2.703125 C 9.238281 -3.054688 9.539062 -3.660156 9.78125 -4.515625 Z M 11.296875 -9.828125"/>
      </g>
    </g>
    <g style="fill:#000000;fill-opacity:1;">
      <g transform="translate(27.364813, 42.958925)">
        <path style="stroke:none" d="M 14.140625 -8.5625 C 13.941406 -7.851562 13.566406 -7.296875 13.015625 -6.890625 C 12.472656 -6.492188 11.789062 -6.242188 10.96875 -6.140625 C 11.5625 -6.085938 12.003906 -5.914062 12.296875 -5.625 C 12.597656 -5.332031 12.75 -4.941406 12.75 -4.453125 C 12.75 -4.273438 12.71875 -4.050781 12.65625 -3.78125 L 12.453125 -2.875 C 12.421875 -2.75 12.40625 -2.660156 12.40625 -2.609375 C 12.40625 -2.453125 12.441406 -2.332031 12.515625 -2.25 C 12.597656 -2.164062 12.707031 -2.125 12.84375 -2.125 C 13.101562 -2.125 13.289062 -2.085938 13.40625 -2.015625 C 13.519531 -1.941406 13.5625 -1.804688 13.53125 -1.609375 C 13.476562 -1.328125 13.328125 -1.050781 13.078125 -0.78125 C 12.828125 -0.507812 12.476562 -0.28125 12.03125 -0.09375 C 11.582031 0.0820312 11.035156 0.171875 10.390625 0.171875 C 9.578125 0.171875 8.929688 -0.0078125 8.453125 -0.375 C 7.972656 -0.738281 7.734375 -1.257812 7.734375 -1.9375 C 7.734375 -2.195312 7.769531 -2.476562 7.84375 -2.78125 L 8.140625 -3.953125 C 8.191406 -4.117188 8.21875 -4.285156 8.21875 -4.453125 C 8.21875 -4.742188 8.117188 -4.945312 7.921875 -5.0625 C 7.734375 -5.1875 7.429688 -5.25 7.015625 -5.25 L 6.3125 -5.25 L 5.453125 -2.1875 C 5.429688 -2.113281 5.421875 -2.019531 5.421875 -1.90625 C 5.421875 -1.726562 5.460938 -1.578125 5.546875 -1.453125 C 5.628906 -1.335938 5.75 -1.210938 5.90625 -1.078125 C 6.007812 -0.984375 6.09375 -0.894531 6.15625 -0.8125 C 6.21875 -0.738281 6.25 -0.660156 6.25 -0.578125 C 6.25 -0.367188 6.148438 -0.21875 5.953125 -0.125 C 5.753906 -0.0390625 5.46875 0 5.09375 0 L 0.4375 0 C 0.125 0 -0.109375 -0.0546875 -0.265625 -0.171875 C -0.429688 -0.285156 -0.488281 -0.453125 -0.4375 -0.671875 C -0.414062 -0.773438 -0.367188 -0.859375 -0.296875 -0.921875 C -0.234375 -0.992188 -0.132812 -1.078125 0 -1.171875 C 0.207031 -1.285156 0.375 -1.410156 0.5 -1.546875 C 0.625 -1.679688 0.722656 -1.894531 0.796875 -2.1875 L 3.046875 -10.15625 C 3.097656 -10.3125 3.125 -10.46875 3.125 -10.625 C 3.125 -10.757812 3.101562 -10.867188 3.0625 -10.953125 C 3.019531 -11.046875 2.960938 -11.15625 2.890625 -11.28125 C 2.773438 -11.445312 2.71875 -11.578125 2.71875 -11.671875 C 2.71875 -11.710938 2.726562 -11.78125 2.75 -11.875 C 2.800781 -12.039062 2.910156 -12.15625 3.078125 -12.21875 C 3.242188 -12.289062 3.5 -12.328125 3.84375 -12.328125 L 10.046875 -12.328125 C 10.898438 -12.328125 11.644531 -12.195312 12.28125 -11.9375 C 12.914062 -11.675781 13.398438 -11.316406 13.734375 -10.859375 C 14.078125 -10.410156 14.25 -9.90625 14.25 -9.34375 C 14.25 -9.082031 14.210938 -8.820312 14.140625 -8.5625 Z M 9.390625 -8.75 C 9.453125 -9.03125 9.484375 -9.242188 9.484375 -9.390625 C 9.484375 -10.046875 9.128906 -10.375 8.421875 -10.375 L 7.640625 -10.375 L 6.828125 -7.109375 L 7.609375 -7.109375 C 8.085938 -7.109375 8.460938 -7.222656 8.734375 -7.453125 C 9.015625 -7.691406 9.234375 -8.125 9.390625 -8.75 Z M 9.390625 -8.75"/>
      </g>
    </g>
    <g style="fill:#000000;fill-opacity:1;">
      <g transform="translate(39.735864, 42.958925)">
        <path style="stroke:none" d="M 15.75 -10.546875 C 15.75 -10.097656 15.648438 -9.710938 15.453125 -9.390625 C 15.265625 -9.078125 15.019531 -8.835938 14.71875 -8.671875 C 14.425781 -8.503906 14.132812 -8.421875 13.84375 -8.421875 C 13.539062 -8.421875 13.269531 -8.476562 13.03125 -8.59375 C 12.789062 -8.71875 12.59375 -8.890625 12.4375 -9.109375 L 7.96875 -1.59375 C 7.632812 -1.019531 7.328125 -0.609375 7.046875 -0.359375 C 6.765625 -0.117188 6.445312 0 6.09375 0 C 5.707031 0 5.398438 -0.125 5.171875 -0.375 C 4.941406 -0.632812 4.78125 -1.039062 4.6875 -1.59375 L 3.125 -10.140625 C 3.09375 -10.359375 3.023438 -10.535156 2.921875 -10.671875 C 2.828125 -10.804688 2.695312 -10.957031 2.53125 -11.125 C 2.40625 -11.226562 2.316406 -11.3125 2.265625 -11.375 C 2.222656 -11.445312 2.203125 -11.535156 2.203125 -11.640625 C 2.140625 -12.097656 2.410156 -12.328125 3.015625 -12.328125 L 7.640625 -12.328125 C 7.921875 -12.328125 8.132812 -12.265625 8.28125 -12.140625 C 8.4375 -12.023438 8.503906 -11.867188 8.484375 -11.671875 C 8.484375 -11.554688 8.460938 -11.460938 8.421875 -11.390625 C 8.378906 -11.316406 8.3125 -11.226562 8.21875 -11.125 C 8.101562 -11 8.015625 -10.878906 7.953125 -10.765625 C 7.890625 -10.648438 7.859375 -10.515625 7.859375 -10.359375 C 7.859375 -10.285156 7.863281 -10.222656 7.875 -10.171875 L 8.578125 -5.859375 L 11.046875 -10.234375 C 11.472656 -11.023438 11.894531 -11.582031 12.3125 -11.90625 C 12.738281 -12.226562 13.257812 -12.390625 13.875 -12.390625 C 14.4375 -12.390625 14.890625 -12.226562 15.234375 -11.90625 C 15.578125 -11.582031 15.75 -11.128906 15.75 -10.546875 Z M 15.75 -10.546875"/>
      </g>
    </g>
    <g style="fill:#000000;fill-opacity:1;">
      <g transform="translate(53.29065, 42.958925)">
        <path style="stroke:none" d="M 8.21875 -12.328125 C 8.476562 -12.328125 8.675781 -12.285156 8.8125 -12.203125 C 8.957031 -12.117188 9.03125 -12.003906 9.03125 -11.859375 C 9.03125 -11.796875 9.007812 -11.71875 8.96875 -11.625 C 8.9375 -11.53125 8.882812 -11.445312 8.8125 -11.375 C 8.75 -11.3125 8.6875 -11.265625 8.625 -11.234375 C 8.570312 -11.203125 8.535156 -11.175781 8.515625 -11.15625 C 8.316406 -11.039062 8.15625 -10.914062 8.03125 -10.78125 C 7.90625 -10.644531 7.800781 -10.4375 7.71875 -10.15625 L 5.46875 -2.1875 C 5.425781 -2.019531 5.40625 -1.863281 5.40625 -1.71875 C 5.40625 -1.570312 5.425781 -1.445312 5.46875 -1.34375 C 5.507812 -1.25 5.570312 -1.144531 5.65625 -1.03125 C 5.769531 -0.875 5.828125 -0.742188 5.828125 -0.640625 C 5.828125 -0.617188 5.816406 -0.5625 5.796875 -0.46875 C 5.742188 -0.289062 5.628906 -0.164062 5.453125 -0.09375 C 5.285156 -0.03125 5.03125 0 4.6875 0 L 0.328125 0 C 0.0664062 0 -0.128906 -0.0390625 -0.265625 -0.125 C -0.410156 -0.21875 -0.484375 -0.335938 -0.484375 -0.484375 C -0.484375 -0.554688 -0.460938 -0.632812 -0.421875 -0.71875 C -0.367188 -0.851562 -0.285156 -0.957031 -0.171875 -1.03125 C -0.0664062 -1.101562 -0.00390625 -1.148438 0.015625 -1.171875 C 0.210938 -1.285156 0.375 -1.40625 0.5 -1.53125 C 0.625 -1.664062 0.726562 -1.882812 0.8125 -2.1875 L 3.078125 -10.15625 C 3.117188 -10.3125 3.140625 -10.46875 3.140625 -10.625 C 3.140625 -10.757812 3.117188 -10.867188 3.078125 -10.953125 C 3.035156 -11.046875 2.976562 -11.15625 2.90625 -11.28125 C 2.789062 -11.445312 2.734375 -11.578125 2.734375 -11.671875 C 2.734375 -11.710938 2.75 -11.78125 2.78125 -11.875 C 2.820312 -12.039062 2.925781 -12.15625 3.09375 -12.21875 C 3.257812 -12.289062 3.515625 -12.328125 3.859375 -12.328125 Z M 8.21875 -12.328125"/>
      </g>
    </g>
    <g style="fill:#000000;fill-opacity:1;">
      <g transform="translate(60.761505, 42.958925)">
        <path style="stroke:none" d="M 11.296875 -2.1875 C 11.253906 -2.019531 11.234375 -1.859375 11.234375 -1.703125 C 11.234375 -1.566406 11.25 -1.453125 11.28125 -1.359375 C 11.320312 -1.265625 11.363281 -1.1875 11.40625 -1.125 C 11.445312 -1.070312 11.472656 -1.035156 11.484375 -1.015625 C 11.609375 -0.890625 11.671875 -0.765625 11.671875 -0.640625 C 11.671875 -0.617188 11.660156 -0.5625 11.640625 -0.46875 C 11.585938 -0.289062 11.476562 -0.164062 11.3125 -0.09375 C 11.144531 -0.03125 10.890625 0 10.546875 0 L 6.15625 0 C 5.894531 0 5.691406 -0.0390625 5.546875 -0.125 C 5.410156 -0.21875 5.34375 -0.335938 5.34375 -0.484375 C 5.34375 -0.554688 5.363281 -0.632812 5.40625 -0.71875 C 5.4375 -0.820312 5.484375 -0.898438 5.546875 -0.953125 C 5.617188 -1.003906 5.71875 -1.066406 5.84375 -1.140625 C 6.039062 -1.253906 6.203125 -1.378906 6.328125 -1.515625 C 6.453125 -1.648438 6.554688 -1.875 6.640625 -2.1875 L 7.125 -3.78125 L 4.234375 -3.78125 L 3.734375 -2.71875 C 3.523438 -2.257812 3.421875 -1.898438 3.421875 -1.640625 C 3.421875 -1.492188 3.445312 -1.375 3.5 -1.28125 C 3.550781 -1.1875 3.625 -1.09375 3.71875 -1 C 3.800781 -0.894531 3.859375 -0.804688 3.890625 -0.734375 C 3.921875 -0.671875 3.925781 -0.585938 3.90625 -0.484375 C 3.851562 -0.296875 3.75 -0.164062 3.59375 -0.09375 C 3.4375 -0.03125 3.195312 0 2.875 0 L 0.109375 0 C -0.171875 0 -0.382812 -0.0507812 -0.53125 -0.15625 C -0.6875 -0.257812 -0.765625 -0.398438 -0.765625 -0.578125 C -0.765625 -0.773438 -0.691406 -0.929688 -0.546875 -1.046875 C -0.398438 -1.160156 -0.1875 -1.285156 0.09375 -1.421875 C 0.457031 -1.609375 0.75 -1.789062 0.96875 -1.96875 C 1.195312 -2.144531 1.390625 -2.394531 1.546875 -2.71875 L 4.84375 -9.546875 C 5.351562 -10.609375 5.945312 -11.375 6.625 -11.84375 C 7.3125 -12.320312 8.21875 -12.5625 9.34375 -12.5625 C 10.601562 -12.5625 11.578125 -12.304688 12.265625 -11.796875 C 12.953125 -11.285156 13.296875 -10.570312 13.296875 -9.65625 C 13.296875 -9.269531 13.234375 -8.875 13.109375 -8.46875 Z M 7.671875 -5.625 L 8.65625 -8.875 C 8.707031 -9.03125 8.734375 -9.1875 8.734375 -9.34375 C 8.734375 -9.570312 8.664062 -9.742188 8.53125 -9.859375 C 8.40625 -9.984375 8.222656 -10.046875 7.984375 -10.046875 C 7.691406 -10.046875 7.441406 -9.957031 7.234375 -9.78125 C 7.023438 -9.613281 6.816406 -9.304688 6.609375 -8.859375 L 5.09375 -5.625 Z M 7.671875 -5.625"/>
      </g>
    </g>
  </g>
<title>Furvia</title></svg>
